<svg width="96" height="31" viewBox="0 0 96 31" fill="none" xmlns="http://www.w3.org/2000/svg">
<path d="M7.99967 19.0133L12.1197 21.5L11.0263 16.8133L14.6663 13.66L9.87301 13.2533L7.99967 8.83334L6.12634 13.2533L1.33301 13.66L4.97301 16.8133L3.87967 21.5L7.99967 19.0133Z" fill="#EFE7D2"/>
<path d="M27.9997 19.0133L32.1197 21.5L31.0263 16.8133L34.6663 13.66L29.873 13.2533L27.9997 8.83334L26.1263 13.2533L21.333 13.66L24.973 16.8133L23.8797 21.5L27.9997 19.0133Z" fill="#EFE7D2"/>
<path d="M47.9997 19.0133L52.1197 21.5L51.0263 16.8133L54.6663 13.66L49.873 13.2533L47.9997 8.83334L46.1263 13.2533L41.333 13.66L44.973 16.8133L43.8797 21.5L47.9997 19.0133Z" fill="#EFE7D2"/>
<path d="M67.9997 19.0133L72.1197 21.5L71.0263 16.8133L74.6663 13.66L69.873 13.2533L67.9997 8.83334L66.1263 13.2533L61.333 13.66L64.973 16.8133L63.8797 21.5L67.9997 19.0133Z" fill="#EFE7D2"/>
<path d="M87.9997 19.0133L92.1197 21.5L91.0263 16.8133L94.6663 13.66L89.873 13.2533L87.9997 8.83334L86.1263 13.2533L81.333 13.66L84.973 16.8133L83.8797 21.5L87.9997 19.0133Z" fill="#EFE7D2"/>
</svg>
