<svg width="16" height="16" viewBox="0 0 16 16" fill="none" xmlns="http://www.w3.org/2000/svg">
<path d="M13.8407 2.51187C13.8353 2.42013 13.7965 2.33355 13.7315 2.26857C13.6665 2.20359 13.5799 2.16473 13.4882 2.15937C8.77695 1.88187 5.00883 3.29437 3.4082 5.9375C2.3182 7.73687 2.3607 9.8625 3.52008 11.95L2.23508 13.235C2.19823 13.2693 2.16868 13.3107 2.14819 13.3567C2.12769 13.4027 2.11667 13.4524 2.11578 13.5027C2.11489 13.5531 2.12415 13.6031 2.14302 13.6498C2.16188 13.6965 2.18995 13.7389 2.22556 13.7745C2.26117 13.8101 2.30358 13.8382 2.35028 13.8571C2.39697 13.8759 2.44699 13.8852 2.49734 13.8843C2.54769 13.8834 2.59735 13.8724 2.64335 13.8519C2.68935 13.8314 2.73075 13.8018 2.76508 13.765L4.05008 12.48C5.12945 13.0794 6.21883 13.3806 7.2682 13.3806C8.25466 13.381 9.22193 13.108 10.0626 12.5919C12.7057 10.9912 14.1176 7.22312 13.8407 2.51187ZM9.67445 11.9494C8.16945 12.8606 6.38445 12.8475 4.60383 11.925L10.2657 6.26312C10.3319 6.19204 10.368 6.09801 10.3663 6.00086C10.3646 5.90371 10.3252 5.81102 10.2565 5.74231C10.1878 5.67361 10.0951 5.63425 9.99796 5.63253C9.90081 5.63082 9.80679 5.66688 9.7357 5.73312L4.07383 11.3962C3.15133 9.61562 3.13633 7.83375 4.04945 6.32562C5.46695 3.98625 8.83883 2.71312 13.112 2.89125C13.287 7.16125 12.0138 10.5337 9.67445 11.9506V11.9494Z" fill="#EFE7D2"/>
</svg>
