<svg width="18" height="18" viewBox="0 0 18 18" fill="none" xmlns="http://www.w3.org/2000/svg">
<path d="M17.262 4.90075C17.2302 4.82419 17.1766 4.75869 17.1078 4.71242C17.039 4.66615 16.9581 4.64117 16.8752 4.64059H14.6534C14.3787 4.13619 13.9747 3.71401 13.4829 3.41743C12.9911 3.12086 12.4292 2.96059 11.8549 2.95309C10.9921 2.94934 10.1629 3.28756 9.5488 3.89373C8.93472 4.4999 8.58579 5.32464 8.57836 6.18747V6.79919C5.59711 6.08903 3.13617 3.66325 3.10804 3.64216C3.05384 3.58865 2.98616 3.55081 2.91218 3.53266C2.8382 3.51451 2.76069 3.51673 2.68788 3.53908C2.61506 3.56143 2.54965 3.60308 2.4986 3.6596C2.44754 3.71613 2.41274 3.78542 2.39789 3.86013C1.78617 7.207 2.79164 9.44294 3.74086 10.7297C4.24429 11.4186 4.86272 12.0156 5.56898 12.4945C4.47914 13.8164 2.68617 14.5054 2.66508 14.5125C2.60517 14.5345 2.55116 14.5701 2.50726 14.6165C2.46336 14.6628 2.43074 14.7186 2.41195 14.7797C2.392 14.8392 2.38606 14.9025 2.3946 14.9647C2.40313 15.0269 2.42592 15.0863 2.46117 15.1383C2.53148 15.2437 3.22054 16.1718 5.62523 16.1718C10.526 16.1718 14.6252 12.382 15.019 7.51638L17.1705 5.35778C17.2315 5.30064 17.2731 5.22587 17.2895 5.14392C17.3059 5.06197 17.2963 4.97695 17.262 4.90075ZM14.3088 7.03122C14.2357 7.10419 14.193 7.20219 14.1893 7.30544C13.901 11.8054 10.1393 15.3281 5.62523 15.3281C4.64789 15.3281 4.02211 15.1593 3.64945 14.9906C4.44398 14.5898 5.74476 13.8023 6.53929 12.607C6.57095 12.5574 6.59225 12.502 6.60191 12.444C6.61158 12.386 6.60941 12.3266 6.59554 12.2695C6.58055 12.211 6.55339 12.1564 6.51583 12.1091C6.47827 12.0619 6.43116 12.0231 6.37757 11.9953C6.36351 11.9953 5.30883 11.4468 4.39476 10.1953C3.30492 8.70466 2.87601 6.88356 3.11508 4.78122C4.14164 5.65309 6.35648 7.29841 8.92992 7.72731C8.99049 7.73882 9.05286 7.73668 9.1125 7.72105C9.17214 7.70542 9.22754 7.67669 9.27468 7.63696C9.32182 7.59722 9.35951 7.54748 9.38502 7.49135C9.41052 7.43522 9.42319 7.37411 9.42211 7.31247V6.18747C9.42768 5.55028 9.68519 4.9412 10.1384 4.49327C10.5916 4.04533 11.2037 3.79496 11.8409 3.79684C12.3013 3.80349 12.7501 3.94219 13.134 4.19646C13.5179 4.45073 13.8207 4.80988 14.0065 5.23122C14.0386 5.30701 14.0925 5.37155 14.1613 5.41663C14.2302 5.4617 14.3109 5.48527 14.3932 5.48434H15.8557L14.3088 7.03122Z" fill="#EFE7D2"/>
</svg>
